<svg id="OBJECTS" xmlns="http://www.w3.org/2000/svg" xmlns:xlink="http://www.w3.org/1999/xlink" viewBox="0 0 464.11 77.72"><defs><style>.cls-1{fill:url(#linear-gradient);}.cls-2{fill:#ad2323;}</style><linearGradient id="linear-gradient" x1="-43" y1="38.86" x2="461.68" y2="38.86" gradientUnits="userSpaceOnUse"><stop offset="0.16" stop-color="#606060"/><stop offset="0.31" stop-color="#908a90"/><stop offset="0.33" stop-color="#9a959a"/><stop offset="0.36" stop-color="#a9a7a9"/><stop offset="0.39" stop-color="#b5b4b5"/><stop offset="0.44" stop-color="#bbb"/><stop offset="0.55" stop-color="#bdbdbd"/><stop offset="0.61" stop-color="#b5b4b5"/><stop offset="0.71" stop-color="#a09da1"/><stop offset="0.82" stop-color="#807b82"/><stop offset="0.91" stop-color="#a3a3a3"/></linearGradient></defs><path class="cls-1" d="M148.34,41.25S52.72,34.82,0,77.72c0,0,29.48-35.34,105.45-42.9,32.88-13,66.32-28.91,105.06-33.44S315.77,4,355.45,15.55c0,0-69.54,20.41-106.77,18.71,27.29-1.53,61.8-17.2,61.8-17.2-45-11.9-75.4-13-107.9-7s-83.91,25.32-83.91,25.32C125.29,37.66,148.34,41.25,148.34,41.25ZM447.67,31s12.85-2.07,16.44-7.55c-16.25,4.34-73.7.94-91.51-4C348,32,284.75,41.7,234.32,46.35,355.45,38.86,437.51,3.27,462,74.32,466.42,49,447.67,31,447.67,31Z"/><path class="cls-2" d="M62.61,70.73C70.72,59.85,85.77,52.55,103,52.55S135.48,60,143.55,71H132.64c-7.54-8.91-20.45-14.78-35.11-14.78S70.18,62,62.61,70.73Z"/><path class="cls-2" d="M334.26,65.1c8.81-10.87,25.14-18.18,43.84-18.18s35.27,7.41,44,18.41H410.29c-8.19-8.9-22.2-14.78-38.12-14.78S342.48,56.32,334.26,65.1Z"/></svg>